<?xml version="1.0" encoding="UTF-8" standalone="no"?>
<svg
   xmlns:dc="http://purl.org/dc/elements/1.1/"
   xmlns:cc="http://creativecommons.org/ns#"
   xmlns:rdf="http://www.w3.org/1999/02/22-rdf-syntax-ns#"
   xmlns:svg="http://www.w3.org/2000/svg"
   xmlns="http://www.w3.org/2000/svg"
   xmlns:sodipodi="http://sodipodi.sourceforge.net/DTD/sodipodi-0.dtd"
   xmlns:inkscape="http://www.inkscape.org/namespaces/inkscape"
   sodipodi:docname="quizzone-logo-main.svg"
   inkscape:version="1.0 (4035a4fb49, 2020-05-01)"
   id="svg4413"
   version="1.1"
   viewBox="0 0 210 297"
   height="297mm"
   width="210mm">
  <defs
     id="defs4407">
    <clipPath
       clipPathUnits="userSpaceOnUse"
       id="clipPath76">
      <path
         d="M 0,1000 H 1000 V 0 H 0 Z"
         id="path74" />
    </clipPath>
    <clipPath
       clipPathUnits="userSpaceOnUse"
       id="clipPath84">
      <path
         d="M 547.224,439.489 H 650.791 V 314.929 H 547.224 Z"
         id="path82" />
    </clipPath>
    <clipPath
       clipPathUnits="userSpaceOnUse"
       id="clipPath108">
      <path
         d="M 379.344,801.032 H 716.932 V 582.362 H 379.344 Z"
         id="path106" />
    </clipPath>
    <clipPath
       clipPathUnits="userSpaceOnUse"
       id="clipPath128">
      <path
         d="m 299.255,580.369 h 207.43 V 313.116 h -207.43 z"
         id="path126" />
    </clipPath>
    <clipPath
       clipPathUnits="userSpaceOnUse"
       id="clipPath164">
      <path
         d="M 547.224,439.489 H 650.791 V 314.929 H 547.224 Z"
         id="path162" />
    </clipPath>
    <clipPath
       clipPathUnits="userSpaceOnUse"
       id="clipPath188">
      <path
         d="M 379.344,801.032 H 716.932 V 582.362 H 379.344 Z"
         id="path186" />
    </clipPath>
    <clipPath
       clipPathUnits="userSpaceOnUse"
       id="clipPath208">
      <path
         d="m 299.255,580.369 h 207.43 V 313.116 h -207.43 z"
         id="path206" />
    </clipPath>
    <clipPath
       clipPathUnits="userSpaceOnUse"
       id="clipPath24">
      <path
         d="M 0,1000 H 1000 V 0 H 0 Z"
         id="path22" />
    </clipPath>
  </defs>
  <sodipodi:namedview
     inkscape:window-maximized="1"
     inkscape:window-y="-8"
     inkscape:window-x="-8"
     inkscape:window-height="961"
     inkscape:window-width="1280"
     showgrid="false"
     inkscape:document-rotation="0"
     inkscape:current-layer="layer1"
     inkscape:document-units="mm"
     inkscape:cy="560"
     inkscape:cx="400"
     inkscape:zoom="0.35"
     inkscape:pageshadow="2"
     inkscape:pageopacity="0.0"
     borderopacity="1.0"
     bordercolor="#666666"
     pagecolor="#ffffff"
     id="base" />
  <metadata
     id="metadata4410">
    <rdf:RDF>
      <cc:Work
         rdf:about="">
        <dc:format>image/svg+xml</dc:format>
        <dc:type
           rdf:resource="http://purl.org/dc/dcmitype/StillImage" />
        <dc:title></dc:title>
      </cc:Work>
    </rdf:RDF>
  </metadata>
  <g
     id="layer1"
     inkscape:groupmode="layer"
     inkscape:label="Слой 1">
    <g
       inkscape:export-ydpi="90"
       inkscape:export-xdpi="90"
       id="g1159"
       transform="matrix(0.0663628,0,0,0.0663628,6.2308569,38.741007)">
      <g
         id="g70"
         transform="matrix(1.3333333,0,0,-1.3333333,47.019309,1340.0503)">
        <g
           id="g72"
           clip-path="url(#clipPath76)">
          <g
             id="g78">
            <g
               id="g80" />
            <g
               id="g92">
              <g
                 clip-path="url(#clipPath84)"
                 id="g90"
                 style="opacity:0.653">
                <g
                   transform="translate(644.0693,435.1621)"
                   id="g88">
                  <path
                     d="M 0,0 V 0 C -7.936,6.604 -19.722,5.526 -26.326,-2.408 L -39.43,-18.151 c -0.054,-0.065 -0.097,-0.135 -0.151,-0.201 -18.151,-21.299 -46.83,-56.368 -55.505,-75.469 -4.349,-9.267 -0.36,-20.304 8.906,-24.653 9.267,-4.347 20.304,-0.36 24.653,8.908 0.064,0.138 0.128,0.278 0.189,0.418 4.555,10.028 31.434,44.508 48.38,64.816 0.802,0.684 1.566,1.427 2.263,2.264 l 11.671,14.02 c 1.226,1.409 2.455,2.821 3.674,4.216 L 4.224,-23.69 C 8.69,-15.956 7.098,-5.908 0,0"
                     style="fill:#f9ec80;fill-opacity:1;fill-rule:evenodd;stroke:none"
                     id="path86" />
                </g>
              </g>
            </g>
          </g>
          <g
             id="g94"
             transform="translate(487.9258,343.5059)">
            <path
               d="m 0,0 c -12.107,-0.001 -14.349,0 -19.199,0.008 l -9.68,0.01 c -2.89,31.485 -20.498,54.298 -33.878,69.023 -15.245,16.778 -30.875,34.817 -47.781,55.142 -20.386,25.673 -34.718,52.102 -45.076,83.125 -2.074,6.903 -2.065,7.561 -3.708,12.354 -2.077,6.058 -6.658,10.823 -13.002,9.99 -6.349,-0.832 -10.822,-6.653 -9.99,-13.002 0.301,-2.3 0.987,-2.585 4.355,-15.549 l 0.22,-0.744 c 11.263,-33.881 26.875,-62.704 49.129,-90.704 l 0.162,-0.2 c 17.156,-20.626 33.029,-38.947 48.53,-56.007 18.975,-20.883 27.683,-39.511 28.234,-60.401 0.101,-3.867 1.72,-16.442 18.162,-16.22 l 0.771,0.008 13.522,-0.014 c 3.706,-0.006 5.891,-0.007 12.104,-0.007 h 7.129 c 6.403,10e-4 11.594,5.193 11.592,11.596 C 11.594,-5.189 6.403,0.002 0,0"
               style="fill:#f9eb84;fill-opacity:1;fill-rule:evenodd;stroke:none"
               id="path96" />
          </g>
          <g
             id="g98"
             transform="translate(618.5137,764.1079)">
            <path
               d="m 0,0 -0.183,0.119 c -65.883,41.796 -158.844,34.997 -225.691,-0.479 -5.759,-3.057 -7.884,-10.279 -4.635,-15.986 3.122,-5.486 10.289,-7.252 15.87,-4.304 59.039,31.181 143.548,38.25 201.943,1.246 50.257,-33.26 77.371,-80.568 80.741,-140.712 0.224,-3.991 3.284,-8.758 6.866,-10.532 1.977,-0.979 3.407,-1.923 5.689,-1.913 4.198,0.018 8.831,1.453 10.627,10.315 0.081,0.401 0.109,0.827 0.09,1.235 C 88.119,-92.117 57.439,-37.975 0,0"
               style="fill:#f9eb84;fill-opacity:1;fill-rule:evenodd;stroke:none"
               id="path100" />
          </g>
          <g
             id="g102">
            <g
               id="g104" />
            <g
               id="g116">
              <g
                 clip-path="url(#clipPath108)"
                 id="g114"
                 style="opacity:0.653">
                <g
                   transform="translate(716.8965,601.0312)"
                   id="g112">
                  <path
                     d="m 0,0 c 0.011,2.22 -0.244,4.419 -0.391,6.634 -4.467,67.521 -36.613,124.181 -94.163,162.229 l -0.147,0.098 -0.148,0.095 c -37.915,25.741 -78.016,29.238 -114.281,30.945 l -15.309,-0.365 c -36.18,-2.556 -68.964,-12.687 -103.07,-30.789 -9.098,-4.692 -12.67,-15.87 -7.979,-24.968 4.692,-9.098 15.87,-12.67 24.968,-7.979 0.13,0.067 0.259,0.136 0.387,0.206 57.415,30.473 137.745,38.173 195.285,1.73 49.808,-32.988 74.756,-77.437 77.648,-136.26 0.019,-0.406 0.085,-0.804 0.194,-1.195 0.583,-2.084 0.047,-6.19 3.615,-10.678 0.597,-0.75 4.567,-4.433 5.387,-4.835 6.761,-3.308 12.253,-5.057 18.795,-1.814 2.529,1.254 3.97,1.484 6.609,5.522 C 0.6,-6.53 -0.021,-4.613 0,0"
                     style="fill:#f9ec80;fill-opacity:1;fill-rule:evenodd;stroke:none"
                     id="path110" />
                </g>
              </g>
            </g>
          </g>
          <g
             id="g118"
             transform="translate(638.7158,428.9229)">
            <path
               d="m 0,0 -0.101,0.082 c -4.99,4.082 -12.344,3.345 -16.426,-1.645 l -6.64,-8.12 c -0.291,-0.355 -0.551,-0.725 -0.793,-1.102 -20.276,-23.662 -51.585,-62.338 -59.454,-79.667 -2.649,-5.829 -0.068,-12.702 5.763,-15.35 1.554,-0.706 3.183,-1.04 4.785,-1.04 4.408,0 8.623,2.528 10.564,6.804 6.659,14.661 36.942,51.952 55.765,73.938 0.551,0.462 1.071,0.977 1.543,1.554 l 3.936,4.814 c 1.312,1.513 2.62,3.019 3.917,4.508 l -0.301,0.101 C 5.562,-10.224 4.573,-3.74 0,0"
               style="fill:#f9eb84;fill-opacity:1;fill-rule:evenodd;stroke:none"
               id="path120" />
          </g>
          <g
             id="g122">
            <g
               id="g124" />
            <g
               id="g136">
              <g
                 clip-path="url(#clipPath128)"
                 id="g134"
                 style="opacity:0.653">
                <g
                   transform="translate(488.3687,350.4453)"
                   id="g132">
                  <path
                     d="m 0,0 c -0.149,0.002 -0.298,0.002 -0.447,0 -13.348,-0.002 -16.741,0.008 -22.811,0.015 -4.143,26.624 -18.246,48.529 -34.805,66.754 h -0.004 c -16.27,17.906 -32.109,36.308 -47.661,55.008 -20.357,24.48 -34.37,50.365 -43.516,79.96 -0.381,1.234 -0.713,2.357 -1.024,3.442 l -1.72,9.397 c -1.861,10.167 -11.612,16.9 -21.779,15.039 -8.844,-1.619 -15.083,-9.211 -15.333,-17.851 h -0.014 c 0.003,-0.025 0.007,-0.045 0.01,-0.07 -0.032,-1.269 0.062,-2.559 0.299,-3.858 l 1.322,-5.75 h 0.001 c 0.62,-2.891 1.367,-5.826 2.365,-9.668 9.465,-36.441 28.25,-67.113 50.891,-94.339 15.819,-19.02 32.01,-37.836 48.728,-56.235 16.137,-17.759 25.869,-34.457 26.435,-55.922 0.09,-3.421 0.699,-7.585 3.196,-11.897 2.498,-4.31 7.129,-7.889 10.923,-9.385 7.567,-2.984 10.965,-1.692 11.745,-1.684 19.094,-0.016 13.604,-0.026 32.764,-0.022 10.235,-0.121 18.63,8.08 18.751,18.315 C 18.435,-8.516 10.235,-0.12 0,0"
                     style="fill:#f9ec80;fill-opacity:1;fill-rule:evenodd;stroke:none"
                     id="path130" />
                </g>
              </g>
            </g>
          </g>
          <g
             id="g138"
             transform="translate(509.168,467.3145)">
            <path
               d="m 0,0 c 62.824,-8.834 116.567,-12.166 126.956,-19.736 -10.389,7.57 -144.082,52.148 -147.767,49.27 3.685,2.878 87.435,56.316 92.566,59.063 -5.131,-2.747 -152.562,43.07 -162.95,50.639 10.388,-7.569 10.388,-7.569 0,0 C -80.807,131.667 0.246,85.24 -1.61,87.923 2.371,84.575 10.336,79.315 9.542,81.375 10.336,79.315 2.937,74.307 -0.928,74.392 0.864,72.998 -69.724,28.402 -78.945,25.103 -69.724,28.402 -62.658,22.789 -30.098,7.65 -25.529,12.612 1.703,5.69 0,0"
               style="fill:#f9ec80;fill-opacity:1;fill-rule:nonzero;stroke:none"
               id="path140" />
          </g>
          <g
             id="g142"
             transform="translate(495.6074,703.2817)">
            <path
               d="m 0,0 c -62.824,8.834 -116.568,12.166 -126.956,19.736 10.388,-7.57 144.082,-52.149 147.767,-49.271 -3.685,-2.878 -87.435,-56.315 -92.566,-59.062 5.131,2.747 152.563,-43.07 162.95,-50.64 -10.387,7.57 -10.387,7.57 0,0 -10.387,7.57 -91.441,53.997 -89.585,51.314 -3.981,3.348 -11.946,8.608 -11.152,6.548 -0.794,2.06 6.605,7.068 10.469,6.983 -1.791,1.394 68.797,45.99 78.018,49.289 -9.221,-3.299 -16.288,2.314 -48.847,17.452 C 25.528,-12.613 -1.703,-5.69 0,0"
               style="fill:#f9ec80;fill-opacity:1;fill-rule:nonzero;stroke:none"
               id="path144" />
          </g>
          <g
             id="g146"
             transform="translate(237.7788,683.5566)">
            <path
               d="m 0,0 -4.69,4.084 -13.859,0.908 -2.984,-1.21 -4.264,-6.354 -1.066,-39.484 0.853,-29.045 7.034,-6.353 5.544,-0.908 8.955,3.328 2.131,10.287 1.067,8.018 -0.853,32.374 z m 33.047,-84.716 18.202,-10.136 -1.46,-4.038 -25.484,6.006 -10.021,1.967 -12.791,-0.152 -2.986,-2.269 -19.827,0.756 -14.499,4.992 -10.233,5.9 -3.411,17.246 2.344,18.304 -0.425,14.069 0.639,25.263 2.559,13.162 15.563,11.497 3.838,2.117 22.813,-0.605 11.513,-4.841 10.233,-11.043 1.92,-58.695 -0.214,-20.423 z"
               style="fill:#f9eb84;fill-opacity:1;fill-rule:nonzero;stroke:none"
               id="path148" />
          </g>
          <g
             id="g150"
             transform="translate(352.4814,617.7515)">
            <path
               d="m 0,0 -2.558,-11.346 -5.117,-8.169 -11.3,-7.262 -7.249,-2.269 -24.518,0.756 -5.33,1.967 -10.66,8.018 -4.265,5.9 -1.278,41.45 v 42.508 l 2.344,9.228 7.25,3.329 h 4.477 l 7.036,-6.203 1.066,-32.373 -2.559,-13.01 3.624,-16.187 -2.984,-3.177 3.198,-8.017 0.639,-14.069 5.543,-4.085 15.778,1.211 2.772,3.328 2.558,14.069 -1.919,60.813 1.067,11.951 1.065,3.177 7.249,2.269 5.543,0.151 7.463,-4.084 0.213,-54.611 -4.051,-9.228 z"
               style="fill:#f9eb84;fill-opacity:1;fill-rule:nonzero;stroke:none"
               id="path152" />
          </g>
          <g
             id="g154"
             transform="translate(397.895,596.1177)">
            <path
               d="m 0,0 -2.985,-4.991 -12.365,-0.152 -5.97,3.783 -1.919,60.813 3.41,33.583 -0.213,9.077 6.823,4.992 4.477,-0.605 h 2.346 l 2.984,-1.967 0.64,-19.363 -2.771,-4.992 -5.33,-4.236 7.035,-4.841 -3.624,-6.051 5.543,-4.236 -1.28,-10.135 0.853,-24.356 1.92,-13.918 z"
               style="fill:#f9eb84;fill-opacity:1;fill-rule:nonzero;stroke:none"
               id="path156" />
          </g>
          <g
             id="g158">
            <g
               id="g160" />
            <g
               id="g172">
              <g
                 clip-path="url(#clipPath164)"
                 id="g170"
                 style="opacity:0.653">
                <g
                   transform="translate(644.0693,435.1621)"
                   id="g168">
                  <path
                     d="M 0,0 V 0 C -7.936,6.604 -19.722,5.526 -26.326,-2.408 L -39.43,-18.151 c -0.054,-0.065 -0.097,-0.135 -0.151,-0.201 -18.151,-21.299 -46.83,-56.368 -55.505,-75.469 -4.349,-9.267 -0.36,-20.304 8.906,-24.653 9.267,-4.347 20.304,-0.36 24.653,8.908 0.064,0.138 0.128,0.278 0.189,0.418 4.555,10.028 31.434,44.508 48.38,64.816 0.802,0.684 1.566,1.427 2.263,2.264 l 11.671,14.02 c 1.226,1.409 2.455,2.821 3.674,4.216 L 4.224,-23.69 C 8.69,-15.956 7.098,-5.908 0,0"
                     style="fill:#f9ec80;fill-opacity:1;fill-rule:evenodd;stroke:none"
                     id="path166" />
                </g>
              </g>
            </g>
          </g>
          <g
             id="g174"
             transform="translate(487.9258,343.5059)">
            <path
               d="m 0,0 c -12.107,-0.001 -14.349,0 -19.199,0.008 l -9.68,0.01 c -2.89,31.485 -20.498,54.298 -33.878,69.023 -15.245,16.778 -30.875,34.817 -47.781,55.142 -20.386,25.673 -34.718,52.102 -45.076,83.125 -2.074,6.903 -2.065,7.561 -3.708,12.354 -2.077,6.058 -6.658,10.823 -13.002,9.99 -6.349,-0.832 -10.822,-6.653 -9.99,-13.002 0.301,-2.3 0.987,-2.585 4.355,-15.549 l 0.22,-0.744 c 11.263,-33.881 26.875,-62.704 49.129,-90.704 l 0.162,-0.2 c 17.156,-20.626 33.029,-38.947 48.53,-56.007 18.975,-20.883 27.683,-39.511 28.234,-60.401 0.101,-3.867 1.72,-16.442 18.162,-16.22 l 0.771,0.008 13.522,-0.014 c 3.706,-0.006 5.891,-0.007 12.104,-0.007 h 7.129 c 6.403,10e-4 11.594,5.193 11.592,11.596 C 11.594,-5.189 6.403,0.002 0,0"
               style="fill:#f9eb84;fill-opacity:1;fill-rule:evenodd;stroke:none"
               id="path176" />
          </g>
          <g
             id="g178"
             transform="translate(618.5137,764.1079)">
            <path
               d="m 0,0 -0.183,0.119 c -65.883,41.796 -158.844,34.997 -225.691,-0.479 -5.759,-3.057 -7.884,-10.279 -4.635,-15.986 3.122,-5.486 10.289,-7.252 15.87,-4.304 59.039,31.181 143.548,38.25 201.943,1.246 50.257,-33.26 77.371,-80.568 80.741,-140.712 0.224,-3.991 3.284,-8.758 6.866,-10.532 1.977,-0.979 3.407,-1.923 5.689,-1.913 4.198,0.018 8.831,1.453 10.627,10.315 0.081,0.401 0.109,0.827 0.09,1.235 C 88.119,-92.117 57.439,-37.975 0,0"
               style="fill:#f9eb84;fill-opacity:1;fill-rule:evenodd;stroke:none"
               id="path180" />
          </g>
          <g
             id="g182">
            <g
               id="g184" />
            <g
               id="g196">
              <g
                 clip-path="url(#clipPath188)"
                 id="g194"
                 style="opacity:0.653">
                <g
                   transform="translate(716.8965,601.0312)"
                   id="g192">
                  <path
                     d="m 0,0 c 0.011,2.22 -0.244,4.419 -0.391,6.634 -4.467,67.521 -36.613,124.181 -94.163,162.229 l -0.147,0.098 -0.148,0.095 c -37.915,25.741 -78.016,29.238 -114.281,30.945 l -15.309,-0.365 c -36.18,-2.556 -68.964,-12.687 -103.07,-30.789 -9.098,-4.692 -12.67,-15.87 -7.979,-24.968 4.692,-9.098 15.87,-12.67 24.968,-7.979 0.13,0.067 0.259,0.136 0.387,0.206 57.415,30.473 137.745,38.173 195.285,1.73 49.808,-32.988 74.756,-77.437 77.648,-136.26 0.019,-0.406 0.085,-0.804 0.194,-1.195 0.583,-2.084 0.047,-6.19 3.615,-10.678 0.597,-0.75 4.567,-4.433 5.387,-4.835 6.761,-3.308 12.253,-5.057 18.795,-1.814 2.529,1.254 3.97,1.484 6.609,5.522 C 0.6,-6.53 -0.021,-4.613 0,0"
                     style="fill:#f9ec80;fill-opacity:1;fill-rule:evenodd;stroke:none"
                     id="path190" />
                </g>
              </g>
            </g>
          </g>
          <g
             id="g198"
             transform="translate(638.7158,428.9229)">
            <path
               d="m 0,0 -0.101,0.082 c -4.99,4.082 -12.344,3.345 -16.426,-1.645 l -6.64,-8.12 c -0.291,-0.355 -0.551,-0.725 -0.793,-1.102 -20.276,-23.662 -51.585,-62.338 -59.454,-79.667 -2.649,-5.829 -0.068,-12.702 5.763,-15.35 1.554,-0.706 3.183,-1.04 4.785,-1.04 4.408,0 8.623,2.528 10.564,6.804 6.659,14.661 36.942,51.952 55.765,73.938 0.551,0.462 1.071,0.977 1.543,1.554 l 3.936,4.814 c 1.312,1.513 2.62,3.019 3.917,4.508 l -0.301,0.101 C 5.562,-10.224 4.573,-3.74 0,0"
               style="fill:#f9eb84;fill-opacity:1;fill-rule:evenodd;stroke:none"
               id="path200" />
          </g>
          <g
             id="g202">
            <g
               id="g204" />
            <g
               id="g216">
              <g
                 clip-path="url(#clipPath208)"
                 id="g214"
                 style="opacity:0.653">
                <g
                   transform="translate(488.3687,350.4453)"
                   id="g212">
                  <path
                     d="m 0,0 c -0.149,0.002 -0.298,0.002 -0.447,0 -13.348,-0.002 -16.741,0.008 -22.811,0.015 -4.143,26.624 -18.246,48.529 -34.805,66.754 h -0.004 c -16.27,17.906 -32.109,36.308 -47.661,55.008 -20.357,24.48 -34.37,50.365 -43.516,79.96 -0.381,1.234 -0.713,2.357 -1.024,3.442 l -1.72,9.397 c -1.861,10.167 -11.612,16.9 -21.779,15.039 -8.844,-1.619 -15.083,-9.211 -15.333,-17.851 h -0.014 c 0.003,-0.025 0.007,-0.045 0.01,-0.07 -0.032,-1.269 0.062,-2.559 0.299,-3.858 l 1.322,-5.75 h 0.001 c 0.62,-2.891 1.367,-5.826 2.365,-9.668 9.465,-36.441 28.25,-67.113 50.891,-94.339 15.819,-19.02 32.01,-37.836 48.728,-56.235 16.137,-17.759 25.869,-34.457 26.435,-55.922 0.09,-3.421 0.699,-7.585 3.196,-11.897 2.498,-4.31 7.129,-7.889 10.923,-9.385 7.567,-2.984 10.965,-1.692 11.745,-1.684 19.094,-0.016 13.604,-0.026 32.764,-0.022 10.235,-0.121 18.63,8.08 18.751,18.315 C 18.435,-8.516 10.235,-0.12 0,0"
                     style="fill:#f9ec80;fill-opacity:1;fill-rule:evenodd;stroke:none"
                     id="path210" />
                </g>
              </g>
            </g>
          </g>
          <g
             id="g218"
             transform="translate(644.2598,557.9014)">
            <path
               d="m 0,0 -7.249,4.689 -14.285,0.908 -4.478,-4.387 -2.557,-11.951 3.197,-4.841 -1.919,-24.809 0.427,-13.01 -1.919,-17.245 4.264,-4.841 14.498,-2.874 5.756,3.328 3.625,8.169 v 40.39 z m 19.827,-45.383 -1.279,-30.256 -5.543,-8.32 -12.792,-6.505 -9.808,-1.966 -13.005,0.756 -13.005,4.69 -8.742,8.017 -3.411,11.196 2.985,3.932 0.852,12.254 3.838,7.109 -0.213,3.934 -5.97,15.43 -0.852,19.968 4.264,6.052 -0.213,7.412 17.909,10.136 7.035,1.21 14.285,-0.756 13.219,-4.69 8.741,-8.017 z"
               style="fill:#f9eb84;fill-opacity:1;fill-rule:nonzero;stroke:none"
               id="path220" />
          </g>
          <g
             id="g222"
             transform="translate(757.0439,548.3711)">
            <path
               d="m 0,0 -2.559,-42.509 0.854,-29.65 -4.265,-6.051 -4.263,-2.118 -7.037,-0.151 -7.035,4.084 -6.396,15.127 -2.985,3.027 -1.706,6.051 -2.558,3.025 -3.411,9.833 -6.183,11.194 -2.559,1.967 -2.984,-2.118 -2.346,-23.296 0.853,-23.145 -4.264,-5.295 -4.051,-1.21 h -4.477 l -8.528,6.806 2.345,21.633 0.64,53.855 2.132,27.078 2.984,1.059 8.528,-0.907 10.235,-10.741 1.705,-6.354 4.477,-4.84 10.661,-19.213 3.198,-9.077 2.984,-2.722 h 1.067 l 3.198,40.542 -0.427,10.136 4.478,3.933 9.807,0.302 3.199,-6.051 1.918,-12.253 z"
               style="fill:#f9eb84;fill-opacity:1;fill-rule:nonzero;stroke:none"
               id="path224" />
          </g>
          <g
             id="g226"
             transform="translate(847.6562,475.4561)">
            <path
               d="m 0,0 -0.854,-3.934 -5.755,-4.386 -54.155,-0.909 -5.969,5.144 -1.919,49.619 1.919,31.314 -0.64,16.187 2.771,6.051 2.346,3.177 7.249,3.328 19.828,-1.816 17.483,0.454 4.05,-4.992 4.478,0.151 0.213,-3.177 -4.478,-2.269 -31.127,-2.571 -2.985,-1.816 -0.64,-19.363 0.213,-6.051 3.199,-6.203 2.985,-1.815 25.798,-0.454 5.756,-5.294 -2.772,-6.959 -5.33,-2.27 -27.29,-1.209 -2.771,-6.354 3.411,-13.01 -1.28,-6.051 0.427,-8.32 2.985,-1.815 22.813,1.512 9.807,0.152 6.183,-1.967 z"
               style="fill:#f9eb84;fill-opacity:1;fill-rule:nonzero;stroke:none"
               id="path228" />
          </g>
          <g
             id="g230"
             transform="translate(237.7788,683.5566)">
            <path
               d="m 0,0 -4.69,4.084 -13.859,0.908 -2.984,-1.21 -4.264,-6.354 -1.066,-39.484 0.853,-29.045 7.034,-6.353 5.544,-0.908 8.955,3.328 2.131,10.287 1.067,8.018 -0.853,32.374 z m 33.047,-84.716 18.202,-10.136 -1.46,-4.038 -25.484,6.006 -10.021,1.967 -12.791,-0.152 -2.986,-2.269 -19.827,0.756 -14.499,4.992 -10.233,5.9 -3.411,17.246 2.344,18.304 -0.425,14.069 0.639,25.263 2.559,13.162 15.563,11.497 3.838,2.117 22.813,-0.605 11.513,-4.841 10.233,-11.043 1.92,-58.695 -0.214,-20.423 z"
               style="fill:#f9eb84;fill-opacity:1;fill-rule:nonzero;stroke:none"
               id="path232" />
          </g>
          <g
             id="g234"
             transform="translate(352.4814,617.7515)">
            <path
               d="m 0,0 -2.558,-11.346 -5.117,-8.169 -11.3,-7.262 -7.249,-2.269 -24.518,0.756 -5.33,1.967 -10.66,8.018 -4.265,5.9 -1.278,41.45 v 42.508 l 2.344,9.228 7.25,3.329 h 4.477 l 7.036,-6.203 1.066,-32.373 -2.559,-13.01 3.624,-16.187 -2.984,-3.177 3.198,-8.017 0.639,-14.069 5.543,-4.085 15.778,1.211 2.772,3.328 2.558,14.069 -1.919,60.813 1.067,11.951 1.065,3.177 7.249,2.269 5.543,0.151 7.463,-4.084 0.213,-54.611 -4.051,-9.228 z"
               style="fill:#f9eb84;fill-opacity:1;fill-rule:nonzero;stroke:none"
               id="path236" />
          </g>
          <g
             id="g238"
             transform="translate(397.895,596.1177)">
            <path
               d="m 0,0 -2.985,-4.991 -12.365,-0.152 -5.97,3.783 -1.919,60.813 3.41,33.583 -0.213,9.077 6.823,4.992 4.477,-0.605 h 2.346 l 2.984,-1.967 0.64,-19.363 -2.771,-4.992 -5.33,-4.236 7.035,-4.841 -3.624,-6.051 5.543,-4.236 -1.28,-10.135 0.853,-24.356 1.92,-13.918 z"
               style="fill:#f9eb84;fill-opacity:1;fill-rule:nonzero;stroke:none"
               id="path240" />
          </g>
        </g>
      </g>
      <g
         id="g14"
         transform="matrix(1.3333333,0,0,-1.3333333,639.53249,993.87671)">
        <path
           d="M 0,0 126.212,0.592 Z"
           style="fill:#ffffff;fill-opacity:1;fill-rule:nonzero;stroke:none"
           id="path16" />
      </g>
      <g
         id="g18"
         transform="matrix(1.3333333,0,0,-1.3333333,47.019309,1340.0503)">
        <g
           id="g20"
           clip-path="url(#clipPath24)">
          <g
             id="g26"
             transform="translate(444.3823,250.0928)">
            <path
               d="m 0,0 c -5.204,0 -9.459,4.181 -9.533,9.4 -0.001,0.047 -0.001,0.094 -0.001,0.14 0,5.203 4.181,9.458 9.401,9.533 l 126.213,0.593 c 0.045,0.001 0.092,0.001 0.139,0.001 5.203,0 9.458,-4.18 9.532,-9.4 0.002,-0.046 0.002,-0.093 0.002,-0.14 0,-5.203 -4.18,-9.458 -9.4,-9.532 L 0.139,0.002 C 0.093,0 0.046,0 0,0"
               style="fill:#ffffff;fill-opacity:1;fill-rule:nonzero;stroke:none"
               id="path28" />
          </g>
          <g
             id="g30"
             transform="translate(571.2178,232.375)">
            <path
               d="M 0,0 -126.213,-0.593 Z"
               style="fill:#ffffff;fill-opacity:1;fill-rule:evenodd;stroke:none"
               id="path32" />
          </g>
          <g
             id="g34"
             transform="translate(445.0015,222.2451)">
            <path
               d="m 0,0 c -5.204,0 -9.459,4.18 -9.533,9.4 -0.001,0.047 -0.001,0.093 -0.001,0.14 0,5.203 4.181,9.458 9.401,9.532 l 126.213,0.594 c 0.046,0.001 0.092,0.001 0.139,0.001 5.203,0 9.458,-4.181 9.532,-9.4 0.002,-0.047 0.002,-0.093 0.002,-0.14 0,-5.203 -4.18,-9.458 -9.4,-9.533 L 0.139,0.001 C 0.093,0 0.046,0 0,0"
               style="fill:#ffffff;fill-opacity:1;fill-rule:nonzero;stroke:none"
               id="path36" />
          </g>
          <g
             id="g38"
             transform="translate(571.0068,290.8379)">
            <path
               d="M 0,0 -126.213,-0.592 Z"
               style="fill:#ffffff;fill-opacity:1;fill-rule:evenodd;stroke:none"
               id="path40" />
          </g>
          <g
             id="g42"
             transform="translate(444.7905,280.709)">
            <path
               d="m 0,0 c -5.204,0 -9.459,4.18 -9.533,9.4 -0.001,0.046 -0.001,0.093 -0.001,0.14 0,5.203 4.181,9.458 9.401,9.532 l 126.213,0.593 c 0.045,0.002 0.092,0.002 0.139,0.002 5.203,0 9.458,-4.181 9.532,-9.4 0.002,-0.047 0.002,-0.094 0.002,-0.14 0,-5.204 -4.18,-9.458 -9.4,-9.533 L 0.139,0.001 C 0.093,0 0.046,0 0,0"
               style="fill:#ffffff;fill-opacity:1;fill-rule:nonzero;stroke:none"
               id="path44" />
          </g>
          <g
             id="g46"
             transform="translate(509.168,467.3145)">
            <path
               d="m 0,0 c 62.824,-8.834 116.567,-12.166 126.956,-19.736 -10.389,7.57 -144.082,52.148 -147.767,49.27 3.685,2.878 87.435,56.316 92.566,59.063 -5.131,-2.747 -152.562,43.07 -162.95,50.639 10.388,-7.569 10.388,-7.569 0,0 C -80.807,131.667 0.246,85.24 -1.61,87.923 2.371,84.575 10.336,79.315 9.542,81.375 10.336,79.315 2.937,74.307 -0.928,74.392 0.864,72.998 -69.724,28.402 -78.945,25.103 -69.724,28.402 -62.658,22.789 -30.098,7.65 -25.529,12.612 1.703,5.69 0,0"
               style="fill:#f9ec80;fill-opacity:1;fill-rule:nonzero;stroke:none"
               id="path48" />
          </g>
          <g
             id="g50"
             transform="translate(495.6074,703.2817)">
            <path
               d="m 0,0 c -62.824,8.834 -116.568,12.166 -126.956,19.736 10.388,-7.57 144.082,-52.149 147.767,-49.271 -3.685,-2.878 -87.435,-56.315 -92.566,-59.062 5.131,2.747 152.563,-43.07 162.95,-50.64 -10.387,7.57 -10.387,7.57 0,0 -10.387,7.57 -91.441,53.997 -89.585,51.314 -3.981,3.348 -11.946,8.608 -11.152,6.548 -0.794,2.06 6.605,7.068 10.469,6.983 -1.791,1.394 68.797,45.99 78.018,49.289 -9.221,-3.299 -16.288,2.314 -48.847,17.452 C 25.528,-12.613 -1.703,-5.69 0,0"
               style="fill:#f9ec80;fill-opacity:1;fill-rule:nonzero;stroke:none"
               id="path52" />
          </g>
          <g
             id="g54"
             transform="translate(237.7788,683.5566)">
            <path
               d="m 0,0 -4.69,4.084 -13.859,0.908 -2.984,-1.21 -4.264,-6.354 -1.066,-39.484 0.853,-29.045 7.034,-6.353 5.544,-0.908 8.955,3.328 2.131,10.287 1.067,8.018 -0.853,32.374 z m 33.047,-84.716 18.202,-10.136 -1.46,-4.038 -25.484,6.006 -10.021,1.967 -12.791,-0.152 -2.986,-2.269 -19.827,0.756 -14.499,4.992 -10.233,5.9 -3.411,17.246 2.344,18.304 -0.425,14.069 0.639,25.263 2.559,13.162 15.563,11.497 3.838,2.117 22.813,-0.605 11.513,-4.841 10.233,-11.043 1.92,-58.695 -0.214,-20.423 z"
               style="fill:#f9eb84;fill-opacity:1;fill-rule:nonzero;stroke:none"
               id="path56" />
          </g>
          <g
             id="g58"
             transform="translate(352.4814,617.7515)">
            <path
               d="m 0,0 -2.558,-11.346 -5.117,-8.169 -11.3,-7.262 -7.249,-2.269 -24.518,0.756 -5.33,1.967 -10.66,8.018 -4.265,5.9 -1.278,41.45 v 42.508 l 2.344,9.228 7.25,3.329 h 4.477 l 7.036,-6.203 1.066,-32.373 -2.559,-13.01 3.624,-16.187 -2.984,-3.177 3.198,-8.017 0.639,-14.069 5.543,-4.085 15.778,1.211 2.772,3.328 2.558,14.069 -1.919,60.813 1.067,11.951 1.065,3.177 7.249,2.269 5.543,0.151 7.463,-4.084 0.213,-54.611 -4.051,-9.228 z"
               style="fill:#f9eb84;fill-opacity:1;fill-rule:nonzero;stroke:none"
               id="path60" />
          </g>
          <g
             id="g62"
             transform="translate(397.895,596.1177)">
            <path
               d="m 0,0 -2.985,-4.991 -12.365,-0.152 -5.97,3.783 -1.919,60.813 3.41,33.583 -0.213,9.077 6.823,4.992 4.477,-0.605 h 2.346 l 2.984,-1.967 0.64,-19.363 -2.771,-4.992 -5.33,-4.236 7.035,-4.841 -3.624,-6.051 5.543,-4.236 -1.28,-10.135 0.853,-24.356 1.92,-13.918 z"
               style="fill:#f9eb84;fill-opacity:1;fill-rule:nonzero;stroke:none"
               id="path64" />
          </g>
        </g>
      </g>
    </g>
  </g>
</svg>
